<?xml version="1.0" encoding="utf-8"?>
<svg id="svg2" width="302" height="92" viewBox="0 0 302 89" xmlns="http://www.w3.org/2000/svg">
  <path id="path14" style="fill:#e7a213;fill-opacity:1;fill-rule:nonzero;stroke:none" d="M 54.463 7.738 C 53.187 3.807 48.966 1.658 45.037 2.935 C 41.107 4.211 38.957 8.431 40.233 12.361 L 59.578 71.879 C 60.906 75.55 64.872 77.613 68.678 76.516 C 72.649 75.374 75.069 71.156 73.802 67.256 C 73.754 67.109 54.463 7.738 54.463 7.738"/>
  <path id="path16" style="fill:#4dc088;fill-opacity:1;fill-rule:nonzero;stroke:none" d="M 24.489 17.477 C 23.212 13.548 18.992 11.398 15.063 12.674 C 11.133 13.95 8.982 18.171 10.259 22.1 L 29.604 81.617 C 30.932 85.289 34.897 87.351 38.704 86.256 C 42.675 85.114 45.095 80.896 43.828 76.996 C 43.78 76.848 24.489 17.477 24.489 17.477"/>
  <path id="path18" style="fill:#e10d63;fill-opacity:1;fill-rule:nonzero;stroke:none" d="M 78.812 57.03 C 82.742 55.753 84.892 51.533 83.615 47.602 C 82.338 43.674 78.118 41.523 74.188 42.8 L 14.671 62.145 C 11 63.473 8.937 67.438 10.033 71.245 C 11.176 75.215 15.393 77.636 19.293 76.369 C 19.441 76.321 78.812 57.03 78.812 57.03"/>
  <path id="path20" style="fill:#3f2543;fill-opacity:1;fill-rule:nonzero;stroke:none" d="M 27.076 73.84 C 30.95 72.581 35.943 70.959 41.301 69.217 C 40.042 65.344 38.419 60.35 36.679 54.991 L 22.453 59.616 L 27.076 73.84"/>
  <path id="path22" style="fill:#d01e25;fill-opacity:1;fill-rule:nonzero;stroke:none" d="M 57.05 64.1 C 62.428 62.352 67.426 60.729 71.275 59.479 C 70.016 55.604 68.393 50.609 66.652 45.25 L 52.426 49.874 L 57.05 64.1"/>
  <path id="path24" style="fill:#7cd3dc;fill-opacity:1;fill-rule:nonzero;stroke:none" d="M 69.073 27.056 C 73.003 25.779 75.153 21.559 73.876 17.629 C 72.599 13.699 68.379 11.549 64.449 12.826 L 4.932 32.17 C 1.261 33.499 -0.802 37.464 0.294 41.27 C 1.437 45.241 5.654 47.663 9.554 46.395 C 9.702 46.346 69.073 27.056 69.073 27.056"/>
  <path id="path26" style="fill:#36987b;fill-opacity:1;fill-rule:nonzero;stroke:none" d="M 17.334 43.866 C 21.208 42.607 26.203 40.985 31.562 39.244 C 29.814 33.866 28.19 28.866 26.94 25.018 L 12.71 29.643 L 17.334 43.866"/>
  <path id="path28" style="fill:#5a872d;fill-opacity:1;fill-rule:nonzero;stroke:none" d="M 47.308 34.128 C 52.687 32.38 57.687 30.755 61.536 29.505 C 59.788 24.125 58.164 19.125 56.913 15.275 L 42.684 19.9 L 47.308 34.128"/>
  <path id="path30" style="fill-opacity: 1; fill-rule: nonzero; stroke: none; fill: rgb(0, 193, 222);" d="M 139.184 23.404 C 141.816 24.553 142.008 25.414 139.95 29.339 C 137.845 33.359 137.318 33.598 134.734 32.545 C 131.479 31.158 127.315 30.104 124.635 30.104 C 120.232 30.104 117.313 31.684 117.313 34.076 C 117.313 41.973 142.535 37.714 142.535 54.56 C 142.535 63.03 135.26 68.678 124.348 68.678 C 118.605 68.678 111.522 66.764 106.641 64.275 C 104.2 63.03 104.057 62.313 106.162 58.292 C 107.981 54.751 108.555 54.367 111.187 55.469 C 115.351 57.288 120.616 58.675 124.157 58.675 C 128.178 58.675 130.857 57.048 130.857 54.655 C 130.857 46.997 105.205 50.635 105.205 34.315 C 105.205 25.654 112.432 19.863 123.247 19.863 C 128.321 19.863 134.734 21.394 139.184 23.404"/>
  <path id="path32" style="fill-opacity: 1; fill-rule: nonzero; stroke: none; fill: rgb(0, 193, 222);" d="M 159.525 3.399 L 159.525 66.189 C 159.525 67.146 158.521 68.151 157.085 68.151 L 150.481 68.151 C 149.045 68.151 148.04 67.146 148.04 66.189 L 148.04 3.399 C 148.04 0.289 148.901 0.001 153.783 0.001 C 159.335 0.001 159.525 0.384 159.525 3.399"/>
  <path id="path34" style="fill-opacity: 1; fill-rule: nonzero; stroke: none; fill: rgb(0, 193, 222);" d="M 176.036 54.367 C 176.036 57.575 178.765 59.727 182.88 59.727 C 187.857 59.727 192.356 57.335 194.989 53.268 L 194.989 49.056 C 192.356 48.051 189.149 47.476 186.279 47.476 C 180.152 47.476 176.036 50.395 176.036 54.367 Z M 206.474 38.719 L 206.474 65.759 C 206.474 67.194 205.469 68.199 204.034 68.199 L 197.525 68.199 C 196.041 68.199 194.989 67.099 195.084 65.615 L 195.18 62.695 C 191.639 66.62 186.565 68.678 181.492 68.678 C 171.634 68.678 165.029 62.982 165.029 54.464 C 165.029 45.419 172.495 39.341 183.694 39.292 C 187.954 39.292 191.83 40.059 194.989 41.35 L 194.989 38.24 C 194.989 33.262 191.064 30.295 184.411 30.295 C 181.301 30.295 177.473 31.54 174.409 33.31 C 172.064 34.65 171.49 34.555 168.954 30.774 C 166.465 26.994 166.56 26.275 168.954 24.744 C 173.548 21.776 179.77 19.863 185.512 19.863 C 198.386 19.863 206.474 26.85 206.474 38.719"/>
  <path id="path36" style="fill-opacity: 1; fill-rule: nonzero; stroke: none; fill: rgb(0, 193, 222);" d="M 251.273 23.5 C 253.665 24.887 253.76 25.654 251.129 29.721 C 248.64 33.55 248.209 33.789 245.577 32.449 C 243.566 31.396 240.36 30.486 237.727 30.486 C 229.449 30.486 223.945 35.943 223.945 44.174 C 223.945 52.741 229.449 58.484 237.727 58.484 C 240.6 58.484 244.189 57.383 246.534 56.091 C 248.928 54.702 249.454 54.799 251.99 58.484 C 254.288 61.93 254.239 62.744 252.181 64.179 C 248.496 66.715 242.658 68.678 237.536 68.678 C 222.223 68.678 211.98 58.866 211.98 44.174 C 211.98 29.577 222.223 19.863 237.633 19.863 C 242.322 19.863 247.826 21.441 251.273 23.5"/>
  <path id="path38" style="fill-opacity: 1; fill-rule: nonzero; stroke: none; fill: rgb(0, 193, 222);" d="M 301.237 62.216 C 303.151 64.658 302.386 65.519 297.6 67.241 C 292.719 69.012 292.049 68.916 290.326 66.667 L 276.638 48.386 L 270.513 54.32 L 270.513 66.189 C 270.513 67.146 269.508 68.151 268.071 68.151 L 261.467 68.151 C 260.031 68.151 259.026 67.146 259.026 66.189 L 259.026 3.399 C 259.026 0.289 259.888 0.001 264.769 0.001 C 270.321 0.001 270.513 0.384 270.513 3.399 L 270.513 39.101 L 289.272 21.107 C 291.331 19.145 292.479 19.288 296.164 21.729 C 300.233 24.361 300.519 25.079 298.557 26.994 L 284.582 40.585 L 301.237 62.216"/>
</svg>